<svg enable-background="new 0 0 1153.8 948.77" viewBox="0 0 1153.8 948.77" xmlns="http://www.w3.org/2000/svg"><g fill="#f6d2a2" stroke="#000" stroke-miterlimit="10" stroke-width="2"><path d="m355.51 822.12c-.91-8.8 54.69-26.12 54.69-26.12s.29.44.87 1.32c1.48 2.25 2.6 3.91 2.62 3.95 1.53 2.31 12.52 14.45 20.56 23.25 4.13 2.76 7.48 5.04 9.72 6.58 6.45 4.41 8.12 5.67 11.29 7.4 5.95 3.23 7.12 2.64 10.04 4.4 9.79 5.93 13.65 22.93 8.6 34.05-2.1 4.62-5.84 8.46-7.47 7.86-1.37-.51-.6-3.9-3.19-6.33-.47-.43-2.2-1.88-3.01-2.54-1-.8-1.07-.84-1.69-1.37-1.92-1.63-2.37-2.29-3.73-3.24-1.04-.73-2.38-1.46-2.48-1.32-.33.5 15.29 8.65 14.05 16.18-.56 3.37-4.28 5.47-5.98 6.36-7.78 4.1-16.29 1.41-20.21-.04-12.5-4.63-22.82-13.1-37.37-27.17-29.17-28.2-29.91-35-42.77-39.81-1.62-.62-4.35-1.52-4.54-3.41z"/><path d="m217.22 812.74c8.71-1.58 30.3 52.49 30.3 52.49s-.42.32-1.25.98c-2.12 1.66-3.7 2.89-3.73 2.92-2.19 1.71-13.42 13.6-21.58 22.31-2.43 4.33-4.44 7.85-5.8 10.21-3.9 6.77-5.03 8.53-6.49 11.83-2.76 6.19-2.07 7.3-3.6 10.35-5.14 10.22-21.8 15.4-33.28 11.23-4.76-1.73-8.89-5.16-8.41-6.83.4-1.41 3.86-.9 6.06-3.68.39-.5 1.71-2.33 2.29-3.19.72-1.05.75-1.13 1.23-1.8 1.47-2.04 2.1-2.55 2.94-3.96.64-1.09 1.28-2.48 1.12-2.57-.52-.29-7.44 15.91-15.03 15.26-3.4-.29-5.79-3.85-6.81-5.47-4.7-7.44-2.67-16.14-1.53-20.15 3.64-12.82 11.29-23.78 24.17-39.37 25.85-31.28 32.57-32.55 36.36-45.74.47-1.71 1.17-4.49 3.04-4.82z"/><path d="m411.94 498.25c-7.77-4.25 9.45-59.87 9.45-59.87s2.11.04 6.32.11c12.66.21 29.07-4.92 29.07-4.92 19.65-6.15 18.76-10.39 34.47-14.03 10.32-2.39 18.97-4.27 25.2 1 6.96 5.89 7.98 18.31 5.06 20.25-.58.38-1.09.21-5.89 1.65-1.23.36-1.3.41-2.09.62-2.43.66-3.23.66-4.77 1.24-1.19.44-2.56 1.13-2.49 1.29.21.56 15.8-7.7 21.29-2.41 2.46 2.36 2.08 6.63 1.85 8.53-1.03 8.74-8.07 14.22-11.48 16.63-10.88 7.67-23.73 11.38-43.55 15.4-39.77 8.06-45.78 4.82-57.04 12.69-1.44 1.01-3.73 2.73-5.4 1.82z"/></g><path d="m342.91 214.1c23.51 113.35 170.71 84.2 165.25-29.5-6.58-136.3-187.79-110.59-165.25 29.5" fill="#fff"/><path d="m421.54 288.8c-14.97.14-29.73-4.31-42.95-12.93-19.15-12.8-32.96-35.1-37.92-61.25-7.45-36.04 2.83-74.13 26.31-97.48 28.3-26.62 65.98-32.55 98.79-15.53 26.78 14.44 44.27 46.79 44.78 82.81 2.94 60.39-35.96 95.58-73.19 103.52-5.25.79-10.54 1.08-15.82.86zm-75.84-75.39c18.58 45.14 56.44 72.63 91.37 69.01 23.82-2.47 40.6-18.82 45.08-23.19 28.72-27.98 27.41-65.93 27.14-73.76-.22-6.51-2.76-57.39-41.99-80.03-17.25-9.96-34.1-10.12-39.66-9.98-31.57.86-51.9 21.63-57.17 27.02-34.13 34.89-25.84 85.06-24.77 90.93z" fill="#010101"/><ellipse cx="476.33" cy="220.06" fill="#010101" rx="24.9" ry="33.3"/><ellipse cx="488.31" cy="228.59" fill="#fff" rx="5.21" ry="7.51"/><path d="m514.63 549.36c11.59 42.01 15.4 122-26.66 198.75-10.76 19.63-56.66 100.35-153.73 129.75-108.01 32.71-233.56-11.96-288.62-98.73-31.65-49.9-31.97-101.77-32.27-151.91-.81-131.22 56.64-153.03 60.76-282.93 3.27-103.09-32.05-116.7-11.39-180.39 24.53-75.65 108.13-157.19 214.56-153.8 120.23 3.84 213.36 114.32 210.69 195.37-1.9 57.78-53.36 126.59-43.59 188.19 4.29 27.02 14.56 48.14 14.56 48.14 9.94 20.4 18.8 27.17 30.41 45.53 0 0 14.51 22.97 25.28 62.03z" fill="#74cddd"/><g stroke="#000" stroke-miterlimit="10"><path d="m277.28 10.1c-106.43-3.39-190.03 78.15-214.56 153.81-20.66 63.69 14.66 77.3 11.39 180.39-4.12 129.89-61.57 151.7-60.76 282.91.3 50.14.62 102.01 32.27 151.91 55.06 86.78 180.61 131.45 288.62 98.73 97.07-29.4 142.97-110.12 153.73-129.75 42.07-76.75 38.25-156.74 26.66-198.75-10.77-39.06-25.28-62.03-25.28-62.03-11.61-18.36-20.47-25.13-30.41-45.53 0 0-10.27-21.12-14.56-48.14-9.77-61.6 41.68-130.4 43.59-188.19 2.68-81.03-90.46-191.52-210.69-195.36z" fill="none" stroke-width="2"/><g stroke-width=".25"><path d="m239.82 215.54c23.51 113.35 170.71 84.2 165.25-29.5-6.58-136.3-187.78-110.6-165.25 29.5" fill="#fff"/><path d="m318.45 290.24c-14.97.14-29.73-4.31-42.95-12.93-19.15-12.8-32.96-35.1-37.92-61.25-7.45-36.04 2.83-74.13 26.31-97.48 28.3-26.62 65.98-32.55 98.79-15.53 26.78 14.44 44.27 46.79 44.78 82.81 2.94 60.39-35.96 95.58-73.19 103.52-5.25.79-10.54 1.07-15.82.86zm-78.63-74.7c.84 7.47 4.42 30.61 23.82 49.5 28.96 28.2 67.53 21.93 70.76 21.34 25.54-4.61 40.92-20.44 45.93-25.75 27.09-28.69 25.21-65.72 24.75-74.59-.38-7.4-2.88-56.5-40.76-78.97-16.96-10.06-33.62-10.4-39.2-10.44-32.9-.26-55.15 19.77-61.24 25.75-36.57 35.89-24.87 89.72-24.06 93.16z" fill="#010101"/><ellipse cx="360.12" cy="237.31" fill="#010101" rx="24.9" ry="33.3"/><ellipse cx="374.19" cy="244.81" fill="#fff" rx="5.21" ry="7.51"/></g><path d="m454.36 332.07c.59-.78.28-.2 5.27-4.81 3.42-3.16 5.13-4.74 5.45-5.14.74-.92 1.01-1.35 1.33-1.28 1.03.22.63 4.99.75 13.65.09 6.18.35 7.8.22 9.55-.02.23-.11 1-.22 1.69-.84 5.12-4.37 13.46-8.44 13.4-2.26-.03-3.9-2.65-5.12-4.58-3.48-5.52-2.71-11.71-2.26-14.45.36-2.11.87-5.18 3.02-8.03z" fill="#fff" stroke-width="2"/><path d="m442.91 338.54c.59-.71.28-.18 5.27-4.4 3.42-2.9 5.13-4.34 5.45-4.71.74-.84 1.01-1.23 1.33-1.17 1.03.2.63 4.56.75 12.48.09 5.65.35 7.14.22 8.74-.02.21-.11.91-.22 1.54-.84 4.69-4.37 12.32-8.44 12.26-2.26-.03-3.9-2.42-5.12-4.19-3.48-5.05-2.71-10.72-2.26-13.22.35-1.92.87-4.72 3.02-7.33z" fill="#fff" stroke-width="2"/><path d="m418.31 246.02c-18.68-1.98-44.47 15.48-49.41 36.88-8.13 35.19 39.75 70.32 62.63 64.02 12.61-3.47 22.92-21 32.05-17.13 3.3 1.4 3.14 4.19 5.6 4.83 11.9 3.11 50.12-53.19 33.15-74.69-8.53-10.81-31.02-12.1-38.79-11.83-7.02.23-10.76 1.71-20.88 1.4-12.72-.4-18.7-2.89-24.35-3.48z" fill="#f6d2a2" stroke-width="2"/></g><path d="m419.29 250.63c-1.47-44.33 59.81-50.09 67.05-12.86 7.23 37.24-64.06 45.84-67.05 12.86z" fill="#010101"/><path d="m306.71 534.22c-4.3-3.52-9.13-5.94-13.9-6.93" fill="#c7b199"/><path d="m308.57 532.57c1.54 1.11 2.3 3.08 1.69 4.4s-2.36 1.49-3.9.38l-1.53-1.73c-3.2-2.59-6.79-4.32-10.32-4.97-1.6-.14-3.22-1.64-3.61-3.35s.6-2.98 2.2-2.84c4.66.72 9.45 2.93 13.73 6.32l1.66 1.86z" fill="#010101"/><path d="m263.36 560.74c-1.37-3.97-2.73-7.95-4.1-11.92-2.1-6.11 1.18-12.83 7.29-14.93l125.29-43.07c6.11-2.1 12.83 1.18 14.93 7.29l5.38 15.66c2.1 6.11-1.18 12.83-7.29 14.93-13.49 8.04-29.76 16.42-48.77 23.78-29 11.23-55.46 16.64-76.52 19.29-1.77-.1-4.41-.49-7.25-1.87-5.55-2.72-8.12-7.43-8.96-9.16z" fill="#303030"/><path d="m356.13 552.57c19.01-7.36 35.28-15.74 48.77-23.78 6.11-2.1 9.39-8.82 7.29-14.93l-.77-2.25c2.1 6.11-1.18 12.83-7.29 14.93-13.49 8.04-29.76 16.42-48.77 23.78-29 11.23-55.46 16.64-76.52 19.29-1.77-.1-4.41-.49-7.25-1.87-5.56-2.71-8.13-7.42-8.96-9.16.25.75.52 1.49.77 2.25.84 1.74 3.41 6.44 8.96 9.16 2.84 1.39 5.49 1.78 7.25 1.87 21.06-2.66 47.51-8.07 76.52-19.29z" fill="#444"/><path d="m407.38 553.53-17.03-49.53c-2.3-6.71 1.3-14.09 8.01-16.4 31.24-8.98 63.76-19.17 97.35-30.77 32.2-11.11 62.82-22.61 91.82-34.28.82-.28 5.16-1.67 9.85.62 2.97 1.45 5.39 4.03 6.55 7.38 5.44 16.72 10.88 33.46 16.3 50.18.19.54.4 1.37.37 2.37-.02.86-.23 2.32-1.88 4.64-1.98 2.76-4.48 4.59-6.41 5.72-42.55 14.16-72.8 24.42-92.98 31.31-31.45 10.74-59.13 20.36-98.85 26.81-5.44.9-9.98 1.53-13.1 1.95z" fill="#ddd"/><path d="m585.83 448.93c-3.43 1.18-7.17-.64-8.35-4.07s.64-7.17 4.07-8.35 7.17.64 8.35 4.07c1.18 3.44-.65 7.18-4.07 8.35z" fill="#fcfcfc"/><circle cx="373.77" cy="515.31" fill="#f4f4f4" r="5.17"/><path d="m370.43 511.36c1.39-1.18 3.22-1.48 4.84-1-1.04-.28-1.81-.17-2.21-.06-.28.07-.54.17-.91.31-.45.18-.83.33-1.24.61-.56.38-.88.8-1.03 1-.87 1.14-.97 2.38-.98 2.75-.04 1 .22 1.73.37 2.1.13.33.52 1.27 1.41 2.12.17.17.41.39.77.62.8.51 1.59.62 2.06.65-1.38-.07-2.72-.67-3.68-1.81-1.85-2.17-1.58-5.44.6-7.29z" fill="#7c7c7c"/><circle cx="316.39" cy="535.03" fill="#f4f4f4" r="5.17"/><path d="m313.04 531.09c1.39-1.18 3.22-1.48 4.84-1-.97-.05-1.71.04-2.2.12-.37.06-.62.13-.89.22-.15.06-.6.24-1.07.62-.11.09-.48.39-.87.94-.27.37-.9 1.27-1.03 2.61-.1 1.03.15 1.84.24 2.12.37 1.07 1.03 1.74 1.37 2.06.34.34.64.55.71.6.76.52 1.49.72 1.97.81-1.38-.07-2.72-.67-3.68-1.81-1.83-2.17-1.56-5.44.61-7.29z" fill="#7c7c7c"/><path d="m589.9 440.6c-.62-1.78-1.91-3.12-3.5-3.84 1.14.77 2.06 1.9 2.54 3.3 1.18 3.43-.64 7.17-4.07 8.35-1.65.57-3.37.43-4.84-.23 1.65 1.11 3.78 1.46 5.81.77 3.41-1.19 5.24-4.93 4.06-8.35z" fill="#474747"/><path d="m406.77 551.76c1.73 4.11 3.46 8.22 5.18 12.34 32.99-9.55 67.15-20.23 102.34-32.21 37.96-12.93 74.07-26.33 108.29-39.93s-.16-1.13-.17-1.2c-.78-5.57-2.32-10.34-2.32-10.34-.26-.83-.5-1.47-.62-1.78-70.89 24.37-141.8 48.74-212.7 73.12z" fill="#7f7f7f"/><path d="m621.77 487.05c-40.49 15.96-74.32 28.08-99.63 36.76-24.98 8.57-48.1 16.01-59.98 19.83-20.72 6.66-38.48 12.16-52.16 16.34" fill="none" stroke="#666" stroke-miterlimit="10" stroke-width=".75"/><path d="m224.83 519.25c-3.81-7.99 42.76-42.95 42.76-42.95s1.69 1.26 5.06 3.79c10.13 7.59 26.44 13.05 26.44 13.05 19.52 6.54 21.29 2.59 36.15 8.84 9.76 4.11 17.86 7.67 19.83 15.58 2.19 8.85-4.28 19.51-7.77 19.37-.69-.03-1.02-.47-5.74-2.12-1.21-.42-1.29-.43-2.05-.72-2.35-.89-3.01-1.36-4.6-1.8-1.22-.34-2.73-.59-2.77-.41-.15.58 17.31 3.03 18.66 10.52.61 3.36-2.2 6.59-3.49 8.01-5.95 6.47-14.88 6.79-19.05 6.74-13.32-.17-25.9-4.69-44.31-13.05-36.94-16.78-39.92-22.94-53.64-23.17-1.79-.03-4.66.03-5.48-1.68z" fill="#f6d2a2" stroke="#000" stroke-miterlimit="10" stroke-width="2"/><path d="m125.05 204.97c-129.07-35.71-33.02-200.5 71.41-133.01z" fill="#74cddd"/><path d="m65.18 148.65c-4.1-29.93 12.52-62.04 38.28-78.63 19.27-12.42 39.93-13.15 42.91-13.22 12.14-.28 21.78 2.26 26.45 3.71 10.06 3.13 17.67 7.61 22.66 11.1-.42.41-.63.62-.62.62 0 0 .78-.75 2.33-2.26-28.38-19.28-65.59-19.98-94.74-1.55-27.49 17.18-42.91 48.42-39.81 80.69 4.1 27.83 25.03 48.97 59.02 59.81.06-.33.16-1.07-.23-1.81-.1-.19-.21-.34-.32-.47-7.65-2.13-36.91-11.2-50.22-38.85-1.33-2.7-4.4-9.61-5.71-19.14z" fill="#010101"/><path d="m130.41 159.61c-17.86-8.92-29.45-21.24-19.1-40.88s27.49-16.24 44.63-7.32z" fill="#010101"/><path d="m754.13 466.18c-3.28-.25-12.74-1.01-12.74-1.01s22.32 10.45 23.73 11.14c11.89 5.77 82.17 125.87 25.08 237.07-52.04 101.36-170.66 118.56-183.84 120.26 23.1 9.39 54.65 19.45 92.97 23.77 7.81.88 130.57 13.13 230-54.46 40.85-27.76 63.15-59.03 67.79-65.69 10.37-14.87 17.22-24.7 20.68-37.22 14.16-51.29-39.69-107.54-65.11-134.09-58.33-63.52-147.65-96.22-176.06-98.16-1.17-.08-10.58-.68-22.5-1.61z" fill="#930"/><ellipse cx="696.16" cy="658.89" fill="#8e031e" rx="201.52" ry="134.52" transform="matrix(.3619 -.9322 .9322 .3619 -170.0106 1069.4034)"/><ellipse cx="696.16" cy="658.89" fill="#f9f9af" rx="191.54" ry="127.86" transform="matrix(.3619 -.9322 .9322 .3619 -170.0106 1069.4034)"/><ellipse cx="696.16" cy="658.89" fill="#ff8a9b" rx="186.3" ry="124.37" transform="matrix(.3619 -.9322 .9322 .3619 -170.0106 1069.4036)"/><ellipse cx="678.07" cy="651.83" fill="#f9f9af" rx="26.77" ry="22.82" transform="matrix(.3037 -.9528 .9528 .3037 -148.8999 1099.9203)"/><g fill="#8e031e"><path d="m759.14 523.06c-11.92-5.89-33.4-14.29-60.55-12.52-10.18.66-16.52 1.15-21.93 5.56-19.84 16.19-16.67 76.45 18.44 92.56 27.41 12.57 59.83-8.41 73.76-27.14 2.39-3.21 16.75-22.53 10.66-37.06-1.33-3.15-4.42-8.02-8.57-12.36-4.3-4.5-8.69-7.34-11.81-9.04z" opacity=".6"/><path d="m789.41 620.61c-44.25-.52-76.93 22.27-80.31 46.97-2.67 19.53 13.22 38.32 17.21 43.04 5.91 6.98 21.63 25.57 40.37 23.9 27.55-2.46 42.2-47.02 42.46-74 .08-8.1.24-26.61-12.07-35.95-2.86-2.18-5.69-3.33-7.66-3.96z" opacity=".6"/><path d="m622.28 581.16c26.92 14.77 35.32 45.78 25.12 68.4-8.06 17.88-26.95 28.73-31.7 31.46-7.02 4.03-25.7 14.76-36.16 6.87-15.39-11.61-2.12-55.35 11.09-78.87 3.97-7.07 13.04-23.2 25.09-27.08 2.78-.89 5.06-.91 6.56-.78z" opacity=".6"/><path d="m687.45 710.02c-6.06-8.52-11.54-16.21-21.34-18.56-12.3-2.94-26.28 3.79-28.53 4.87-3.29 1.58-6.73 3.71-6.73 3.71-4.4 2.73-7.47 5.25-9.51 6.96-9.56 8.01-14.33 12.03-19.49 17.4-9.99 10.41-14.98 15.61-16.94 23.66 0 0-1.64 6.76-.22 14.56 3.81 20.97 29.25 39.69 54.97 46.45 18.76 4.93 52.21 6.86 63.09-10.67 2.99-4.81 2.92-10.79 2.66-22.54-.37-16.73-1.26-42.38-17.96-65.84z" opacity=".6"/><ellipse cx="703.92" cy="539.1" rx="15.54" ry="11.79"/><ellipse cx="744.05" cy="560.56" rx="12.99" ry="7.03"/><ellipse cx="711.81" cy="578.03" rx="9.98" ry="8.58"/><circle cx="779.2" cy="650.05" r="11.95"/><ellipse cx="740.11" cy="673.72" rx="9.05" ry="11.71"/><circle cx="769.99" cy="699.24" r="11.03"/><ellipse cx="627.64" cy="608.02" rx="6.97" ry="12.58"/><circle cx="605.57" cy="634.17" r="8.58"/><circle cx="606.36" cy="668.23" r="9.38"/><ellipse cx="630.38" cy="755.09" rx="11.69" ry="23.06" transform="matrix(.4525 -.8918 .8918 .4525 -328.2227 975.5775)"/><circle cx="658.58" cy="724.75" r="9.17"/><circle cx="688.55" cy="777.47" r="7.6"/><ellipse cx="659.67" cy="787.68" rx="8.07" ry="2.61"/></g><path d="m1069.86 734.03c-.14.11-.6.47-1.29.77-.81.35-1.41.39-1.55.39-.4.02-.63-.04-1.1-.12-1.01-.17-1.44-.16-2.15-.23-1.7-.19-3.87-.78-4.4-.93-1.78-.48-2.09-.44-6.67-1.34-5.65-1.1-8.55-1.81-13.98-2.9-8.97-1.81-14.04-2.5-21.57-4.91-2.33-.75-5.51-1.86-7.58-4.79-1.74-2.45-2.54-5.56-1.99-8.74l2.41-14.09c1.09-6.36 7.18-10.65 13.53-9.57l51.67 8.85c6.36 1.09 10.66 7.18 9.57 13.53l-2.41 14.09c-6.72 5.41-11.63 9.31-12.49 9.99z" fill="#ffffbd"/><ellipse cx="1100.1" cy="699.55" fill="#ffffbd" rx="26.01" ry="24.01" transform="matrix(.3832 -.9237 .9237 .3832 32.4003 1447.6217)"/><circle cx="1091.55" cy="731.93" fill="#ffffbd" r="25.75"/><path d="m1066.76 726.19 1.05-2.71c-16.59-2.08-33.18-4.17-49.77-6.25-5.04-.86-8.78-4.87-9.57-9.66l-.75 4.36c-1.09 6.36 3.21 12.44 9.57 13.53 16.29 3.44 32.59 6.87 48.88 10.31-.26-1.12-.24-2-.17-2.61.03-.21.04-.26.2-1.23.2-1.12.33-1.98.35-2.09.12-.78.25-1.96.21-3.65z" fill="#b2b19a" opacity=".7"/><path d="m1017.31 734.05c-8.42-.03-16.86-.06-25.28-.1-1.04-2.99-2.05-6.24-2.95-9.73-.81-3.18-1.44-6.2-1.93-9.04l7.27-32.87c1.56-1.34 3.93-3.74 5.56-7.38 2.32-5.19 1.8-9.93 1.41-12.06 9.45 5.02 18.89 10.04 28.34 15.05 4.18-2.49 9.3-2.3 12.11.01 3.7 3.05 3.9 10.25-1.9 14.44l-7.27 32.87c3.5 4.29 2.85 9.84-.46 12.38-3.86 2.95-11.35 1.89-14.9-3.57z" fill="#930"/><path d="m1115.14 735.53c-5.45 13.14-20.51 19.37-33.65 13.92-3.43-1.43-5.72-3.19-6.58-3.96-8.58-7.75-7.46-20.22-7.24-22.32-.58 1.52-4.18 11.58 1.36 21.57 3.75 6.77 9.66 9.8 12.46 10.96 1.32.55 10.88 4.33 21.09-.52 6.54-3.11 11.05-8.67 12.75-13.39.43-1.19 1.1-3.5 1.52-6.27.42-2.76.47-5.12.41-6.83-.27 1.19-.72 2.9-1.42 4.93.01 0-.33 1.02-.7 1.91z" fill="#b2b19a" opacity=".7"/><path d="m972.08 609.52c-1.1-1.22-2.21-2.44-3.31-3.65-5.98-7.38-15.13-18.01-27.31-29.76-30.46-29.35-75.75-61.7-85.43-53.07-5.48 4.89 4.94 18.91 12.88 65.24 1.46 8.52 2.39 15.56 2.96 20.18 1.58 34.28-4.28 60.27-10.79 78.81-5.27 15.01-10.03 22.38-6.19 28.29 9.36 14.41 59.21 3.7 93.72-21.48 12.91-9.42 40.74-29.73 38.07-56.62-1.27-12.78-8.97-22.37-14.6-27.94z" fill="#b73902" opacity=".7"/><path d="m912.93 565.27c12.34 13.32 18.52 20.16 18.79 29.46.74 25.16-39.06 49.46-51.73 41.52-8.36-5.23.92-20.81-4.4-55.91-4.72-31.12-15.99-45.04-10.9-48.95 7.19-5.51 34.38 18.92 48.24 33.88z" fill="#f99c73" opacity=".6"/><path d="m1101.4 707.16c-10.46-4.34-22.14-1.27-29.22 6.8 7.16-6.71 17.84-9 27.48-5.01 13.14 5.45 19.37 20.51 13.92 33.65-1.11 2.67-2.63 5.06-4.43 7.12 2.59-2.42 4.72-5.42 6.17-8.91 5.45-13.13-.78-28.2-13.92-33.65z" fill="#afafaf" opacity=".4"/><path d="m1110.83 675.37c-7.62-3.42-14.76-1.07-16.97-.35-7.59 2.49-12.29 8.01-11.93 8.53.44.64 8.22-6.38 19.58-6.36 1.94 0 3.95.03 6.43.87 8.88 3.02 12.25 12.7 12.96 14.97 0 0 2.19 7.03-.11 15.75-.37 1.41-.94 2.62-.94 2.62-.15.3-.27.55-.35.69-.64.79-1.53 1.89-2.61 3.22-2.42 3-2.74 3.43-2.69 3.48.08.08 1.06-.74 5.22-4.87.41-.45 1.03-1.15 1.65-2.09 0 0 1.35-2.01 2.18-4.7 2.66-8.6 0-16.7 0-16.7-.79-2.47-3.63-11.12-12.42-15.06z" fill="#afafaf" opacity=".2"/></svg>