<svg enable-background="new 0 0 690.65 924.71" viewBox="0 0 690.65 924.71" xmlns="http://www.w3.org/2000/svg"><g stroke="#000" stroke-miterlimit="10"><path d="m533.13 783.39c25.32 15.72 71.77 63.21 33.7 86.26-36.5 33.53-57.1-36.84-89.23-46.45 12.47-20.14 32.46-34.47 55.53-39.81z" fill="#f6d2a2" stroke-width="2"/><path d="m244.47 845.38c-28.38 4.32-44.31 29.87-67.88 42.82-8.35 7.71-21.37 7.19-29.08-1.16-1.78-1.93-3.18-4.18-4.11-6.64-3.34.08-6.53-1.39-8.63-3.98-20.58-33.19 21.41-56.26 43.48-72.53 31.03-5.98 50.12 20.41 66.22 41.49z" fill="#f6d2a2" stroke-width="2"/><path d="m511.95 78.33c90.75-58.64 174.21 84.55 62.05 115.57z" fill="#74cddd" stroke-width="2"/><circle cx="568.56" cy="131.65" r="23.29" stroke-width="2"/><path d="m96.35 216.27c-115.21-31.87-29.48-178.94 63.73-118.71z" fill="#74cddd" stroke-width="2"/><circle cx="112.56" cy="154.94" r="25.8" stroke-width="2"/><path d="m340.64 31.06c97.05 0 187.67 13.4 235.39 107.24 42.49 104.42 26.81 217.16 33.91 327.48 5.63 94.77 17.96 204.29-26.01 292.22-45.98 92.22-162.06 115.15-257.24 112.06-74.8-2.68-165.15-26.81-207.37-95.44-49.6-80.43-26.14-199.46-22.52-288.6 4.29-105.63-28.69-211.66 6.03-315.15 36.07-107.24 133.12-131.5 237.68-139.81" fill="#74cddd" stroke-width="2"/><ellipse cx="233.62" cy="184.19" fill="#fff" rx="91.31" ry="85.72" stroke-width="2"/><ellipse cx="459.88" cy="173.48" fill="#fff" rx="91.31" ry="85.72" stroke-width="2"/></g><ellipse cx="459.88" cy="218.45" fill="#010101" rx="26.32" ry="29.03"/><ellipse cx="471.77" cy="225.07" fill="#fff" rx="6.17" ry="7.37"/><ellipse cx="244.47" cy="225.07" fill="#010101" rx="26.78" ry="29.03"/><ellipse cx="256.65" cy="231.69" fill="#fff" rx="6.32" ry="7.37"/><path d="m393.05 303.29c-2.16-2.27-3.12-1.08-16.76-4.27-10.85-2.54-16.28-3.8-17.69-4.7-.65-.42-2.61-1.81-3.81-1.12-1.06.61-1 2.53-.98 3.5.11 4.39-.15 8.8.08 13.19.03.54.08 4.17.17 11.42.06 4.67.04 4.45.08 7.22.18 12.83.48 14.46.87 15.96.77 2.98 1.63 6.33 4.48 9.41 3.94 4.27 9.06 5.22 12.32 5.82 3.75.7 7.46 1.38 11.2-.45 3.68-1.8 5.29-5.01 7.62-9.63 2.97-5.91 3.93-10.98 4.7-15.23 1.48-8.18 1.22-14.35 1.12-16.13-.45-8.08-.67-12.12-3.4-14.99z" fill="#fff" stroke="#000" stroke-miterlimit="10" stroke-width="2"/><path d="m315.24 302.54c2.16-2.27 3.12-1.08 16.76-4.27 10.85-2.54 16.28-3.8 17.69-4.7.74-.47 2.74-1.82 3.81-1.12 1.01.66.65 2.79.45 4.26-.58 4.27 0 8.62-.08 12.93-.1 5.15.01 9.3.08 11.93.09 3.36.14 3.19.25 6.72.26 8.44.38 12.72-.42 15.62-.54 1.97-1.64 5.82-4.98 9.24-4.2 4.31-9.34 5.27-12.32 5.82-3.75.7-7.46 1.38-11.2-.45-3.68-1.8-5.29-5.01-7.62-9.63-2.97-5.91-3.93-10.98-4.7-15.23-1.48-8.18-1.22-14.35-1.12-16.13.44-8.09.67-12.13 3.4-14.99z" fill="#fff" stroke="#000" stroke-miterlimit="10" stroke-width="2"/><path d="m286.73 289.06c.16-2.75.63-9.5 5.15-15.9 2.18-3.09 4.56-5.06 6.05-6.27 1.89-1.54 5.99-4.57 11.87-6.5 4.94-1.61 8.9-1.71 13.22-1.79 16.4-.29 23.46-.25 28.67-.45 10.94-.41 10.85-2.19 22.4-2.69 10.77-.46 15.83.55 19.71 1.79 5.33 1.71 8.98 4.05 12.1 6.05 3.28 2.1 9.4 6.1 15.01 13.44 3.01 3.94 4.88 6.23 6.05 10.08 2.38 7.85-.2 14.65-.9 16.35-.81 1.97-3.75 8.41-10.98 12.32-6.45 3.49-12.61 2.95-15.23 2.69-3.38-.34-3.51-.98-15.01-4.93-6.82-2.34-7.26-2.29-12.77-4.26-8.82-3.15-9.35-4.13-12.84-4.98-7.6-1.85-15.88.57-18.82 1.67-6.54 2.45-5.61 4.13-13.19 7.46-3.69 1.62-8.89 3.85-15.68 4.03-4.32.12-11.15.31-16.8-4.03-9.01-6.91-8.24-20.09-8.01-24.08z" fill="#f6d2a2" stroke="#000" stroke-miterlimit="10" stroke-width="2"/><path d="m315.77 264.47c-1.65-37.61 70.25-42.42 78.67-10.83s-75.21 38.81-78.67 10.83z" fill="#010101"/><g stroke="#000" stroke-miterlimit="10"><path d="m97.04 746.59c-1.14-56.54-6.83-124.63-22.37-200.38-13.97-68.11-32.75-127.11-51.56-175.88 22.81-8.28 53.79-22.31 86.18-46.38 30.21-22.45 51.68-46.21 66.05-64.75.2 2.34.4 4.67.61 7.01 11.88 137.04 23.76 274.08 35.64 411.13-15.19 3.24-36.73 9.65-59.91 23.12-26.29 15.25-44.02 33.4-54.64 46.13z" fill="#f7f9f9"/><path d="m347.43 771.15c0-131.12 0-262.23 0-393.35-23.49-6.65-56.4-18.82-91.22-41.98-39.29-26.13-65.29-55.76-80.88-76.62 12.4 139.29 24.81 278.58 37.21 417.87 44.97 31.36 89.93 62.72 134.89 94.08z" fill="#f7f9f9"/><path d="m347.43 771.15c0-130.75 0-261.5 0-392.26 24.95-9.64 54.74-23.53 86.32-43.76 36.96-23.68 65.38-49 86.18-70.4-16.1 137.95-32.19 275.89-48.29 413.84-41.4 30.85-82.8 61.71-124.21 92.58z" fill="#f7f9f9"/><path d="m606.46 746.59c-.54-54.54 2.8-119.94 14.83-192.89 11.69-70.86 28.84-132.23 46.27-182.66-24-8.94-56.34-24.06-89.71-49.95-24.99-19.39-43.71-39.5-57.22-56.37-16.1 137.95-32.19 275.89-48.29 413.84 14.49-.84 52.9-1.08 90.68 23.75 22.39 14.7 35.99 32.57 43.44 44.28z" fill="#f7f9f9"/><g stroke-width="2"><path d="m654.09 510.94c-1.07 7.79-2.63 19.17-12.33 25.94-10.07 7.03-21.84 3.76-23.33 3.33-12.66-3.64-17.79-14.58-18.49-16.16-.46-.83-.99-2.01-1.33-3.5-.3-1.31-.36-2.46-.33-3.33-.13-4.57 1.12-6.55 2.33-7.5 0 0 .43-.34 4.33-2.17s-.07-.03-2.83-1.17c-.38-.26-.82-.53-1.32-.79-.22-.11-.44-.21-.65-.3-.75-.28-1.75-.79-2.53-1.75-2.68-3.26-.52-8.82.17-10.66 3.11-8.28 13.52-13.93 22.66-15.99 3.59-.81 19.23-4.39 28.59 5.32 7.88 8.19 6.3 19.71 5.06 28.73z" fill="#f6d2a2"/><path d="m46.52 524.05c1.07 7.79 2.63 19.17 12.33 25.93 10.07 7.03 21.84 3.76 23.33 3.33 12.66-3.64 17.79-14.58 18.49-16.16.46-.83.99-2.01 1.33-3.5.3-1.31.36-2.46.33-3.33.13-4.57-1.12-6.55-2.33-7.5 0 0-.43-.34-4.33-2.17s.07-.03 2.83-1.17c.38-.26.82-.53 1.32-.79.22-.11.44-.21.65-.3.75-.28 1.75-.79 2.53-1.75 2.68-3.26.52-8.82-.17-10.66-3.11-8.28-13.52-13.93-22.66-15.99-3.59-.81-19.23-4.39-28.59 5.32-7.88 8.2-6.3 19.72-5.06 28.74z" fill="#f6d2a2"/><path d="m596.3 507.13c2.26.71 5.92 1.56 10.45 1.26 3.96-.26 7.11-1.3 9.16-2.17" fill="none"/><path d="m110.31 520.25c-2.26.71-5.92 1.56-10.45 1.26-3.96-.26-7.11-1.3-9.16-2.17" fill="none"/><path d="m143.39 880.4c0-8.64 5.97-15.64 13.35-15.64" fill="none"/><path d="m566.83 869.65c0-11.78-3.98-21.31-8.89-21.31" fill="none"/></g></g></svg>